<?xml version="1.0" encoding="UTF-8"?>
<svg id="Layer_1" data-name="Layer 1" xmlns="http://www.w3.org/2000/svg" viewBox="0 0 160 160">
  <defs>
    <style>
      .cls-1 {
        fill: #939393;
      }

      .cls-1, .cls-2, .cls-3 {
        stroke-width: 0px;
      }

      .cls-2 {
        fill: none;
      }

      .cls-4 {
        fill: #b9b9b9;
        font-family: MicrosoftUighur, 'Microsoft Uighur';
        font-size: 8px;
      }

      .cls-3 {
        fill: #4b4b4b;
      }
    </style>
  </defs>
  <g>
    <path class="cls-3" d="M56.77,80.88c.16-.09.31-.2.48-.26,3.89-1.3,6.79-3.86,9.03-7.19,1.85-2.75,3.59-5.58,5.32-8.41.48-.78,1.03-1.1,1.94-1.06,1.53.06,3.07.02,4.93.02-1.14-1.19-2.31-1.37-3.42-1.45-7.96-.58-15.77-.17-23.01,3.72-.7.37-1.35.83-2.15,1.33.03-.24,0-.4.06-.49,2.62-4,5.47-7.79,9.47-10.55,2.7-1.86,5.68-2.95,8.98-2.99,5.56-.06,11.13-.07,16.69-.09.39,0,.77.05,1.37.09-.27.51-.43.86-.63,1.18-2.88,4.61-5.75,9.23-8.64,13.83-4.4,7-10.64,11.24-18.88,12.46-.49.07-.99.08-1.49.11-.02-.07-.04-.15-.05-.22Z"/>
    <path class="cls-3" d="M101.18,53.67c-4.92,1.79-8.18,5.28-10.76,9.58-1.23,2.06-2.59,4.04-3.79,6.11-.59,1.02-1.26,1.5-2.48,1.41-1.42-.11-2.86-.03-4.29-.03-.04.13-.08.25-.12.38.73.29,1.44.71,2.2.84,4.5.8,9.02.51,13.5-.14,4.52-.65,8.82-1.96,12.55-4.75.09-.06.21-.09.49-.2-.25.44-.39.74-.58,1.02-2.32,3.46-4.81,6.78-8.11,9.4-3.14,2.49-6.65,3.89-10.72,3.86-5-.03-10,.08-15,.13-.78,0-1.56,0-2.63,0,.4-.71.59-1.09.81-1.45,2.88-4.61,5.74-9.23,8.67-13.81,4.37-6.83,10.49-11.06,18.61-12.24.54-.08,1.1-.09,1.65-.13Z"/>
    <path class="cls-1" d="M38.98,89.03c-.23,1.04-.46,2.08-.68,3.11-.36,1.69-.63,1.84-2.53,1.29.19-.95.37-1.91.57-2.87.28-1.37.59-2.73.86-4.1.13-.62.26-1.21,1.09-1.13.81.08,1.8-.38,2.22.85.45,1.3.99,2.57,1.5,3.85.1-.01.2-.02.3-.03.25-1.2.5-2.39.77-3.58.22-.99,1.05-1.44,1.96-1.01.21.1.39.58.34.84-.43,2.23-.89,4.46-1.42,6.67-.08.32-.64.72-.99.73-.76.02-1.72.44-2.15-.71-.48-1.31-1.01-2.59-1.52-3.89-.1,0-.2,0-.31-.01Z"/>
    <path class="cls-1" d="M50.03,93.95c-.8-.13-1.48-.18-2.13-.36-.92-.25-1.41-.93-1.32-1.88.03-.35.37-.96.58-.96.56,0,1.29.08,1.65.44.57.57,2.06,1.02,2.71.5.18-.15.35-.49.31-.7-.04-.18-.36-.41-.59-.44-.83-.1-1.68-.07-2.5-.2-1.29-.2-1.75-.93-1.52-2.22.29-1.65,1.03-2.52,2.7-2.75,1.12-.16,2.31-.14,3.42.08.51.1,1.05.81,1.27,1.37.15.38-.13,1.33-.37,1.39-.63.15-1.48.55-1.9-.54-.29-.76-2.17-.83-2.55-.12-.1.19.16.83.37.89.48.14,1.03.03,1.54.07,1.07.1,2.25.07,2.6,1.43.31,1.23-.59,3.01-1.81,3.45-.81.3-1.7.39-2.46.55Z"/>
    <path class="cls-1" d="M83.12,91.2c-.56-.12-.93-.2-1.29-.28-.01-1.65.04-1.71,1.53-1.72.68,0,1.36,0,2.04.02.11,0,.23.06.33.09.28,1.87-.6,3.47-2.28,4.12-.26.1-.53.18-.8.24-2.82.61-4.85-.13-5.26-1.92-.62-2.7,1.17-5.88,3.74-6.35,1.1-.2,2.32-.15,3.41.1.61.14,1.18.87,1.56,1.47.19.29-.11.89-.19,1.35-.62-.11-1.43-.02-1.81-.38-.83-.79-2.05-1.13-3.09-.53-.94.54-1.69,2.6-1.31,3.62.39,1.07,2.03,1.22,3.43.18Z"/>
    <path class="cls-1" d="M106.05,85.36c.6,0,1.2-.03,1.79,0,1.96.13,2.86,1.22,2.64,3.17-.32,2.86-1.42,4.6-3.53,4.96-1.55.27-3.17.15-4.76.13-.18,0-.55-.56-.5-.79.43-2.27.9-4.53,1.44-6.77.07-.3.56-.64.9-.7.66-.11,1.35-.03,2.03-.03,0,0,0,.02,0,.02ZM104.19,91.66c2.65.45,4.12-.85,3.93-3.18-.07-.85-.59-1.22-1.34-1.24-.61-.02-1.47-.43-1.73.52-.35,1.26-.57,2.55-.86,3.9Z"/>
    <path class="cls-1" d="M132.59,93.55c.56-2.63,1.07-5.12,1.66-7.59.06-.26.55-.59.85-.6,1.35-.05,2.72-.06,4.07.03,1.63.11,2.42,1.04,2.41,2.67-.01,2.84-1.34,5.1-3.53,5.44-1.7.26-3.47.05-5.45.05ZM135.26,91.68c2.61.4,3.86-.59,3.98-2.91.04-.77-.26-1.42-1.06-1.46-.68-.04-1.82.05-1.97.4-.5,1.22-.65,2.59-.95,3.97Z"/>
    <path class="cls-1" d="M62.07,85.15c2.88,0,4.06,1.5,3.43,4.33-.77,3.46-3.4,5.08-6.79,4.18-1.11-.3-1.81-.98-2.01-2.12-.6-3.48,1.86-6.4,5.36-6.38ZM60.66,91.89c1.78,0,3.33-2.34,2.54-3.94-.19-.38-.75-.74-1.18-.81-1.65-.28-2.81.88-3.04,2.89-.14,1.25.41,1.86,1.68,1.86Z"/>
    <path class="cls-1" d="M87.37,93.46c.54-2.55,1.04-5.04,1.62-7.52.06-.26.56-.57.87-.58,1.39-.05,2.79-.06,4.19.02,1.17.06,1.97.85,1.77,1.95-.18,1.01-.56,2.15-1.24,2.85-.69.7-.71,1.18-.37,1.93.19.43.29.89.42,1.34-1.83.56-2.15.41-2.76-1.2-.04-.11-.05-.26-.13-.33-.35-.3-.72-.57-1.09-.85-.25.35-.62.68-.71,1.07-.42,1.72-.56,1.82-2.55,1.33ZM90.75,89.14c.62,0,1.31.16,1.85-.05.39-.15.59-.8.88-1.23-.35-.22-.68-.61-1.04-.64-1.54-.14-1.77.15-1.68,1.92Z"/>
    <path class="cls-1" d="M74.2,93.53c-2.16.35-2.12.33-2.86-1.4-.18-.43-.68-.72-1.04-1.07-.29.4-.71.77-.83,1.22-.41,1.52-.5,1.6-2.39,1.25,0-.28-.05-.59,0-.88.44-2.11.92-4.21,1.33-6.33.14-.73.46-1.02,1.2-1,1.28.04,2.56-.02,3.84.04,1.4.07,2.18.97,1.87,2.32-.2.9-.56,1.92-1.2,2.51-.74.67-.73,1.16-.38,1.92.19.42.29.89.45,1.42ZM70.3,89.15c.61,0,1.28.14,1.84-.05.37-.13.67-.68.84-1.11.07-.17-.26-.67-.49-.74-1.6-.51-2.28.07-2.19,1.9Z"/>
    <path class="cls-1" d="M29.33,91.84c1.19,0,2.31-.05,3.41.03.32.02.9.48.87.59-.13.43-.44,1.14-.71,1.15-2.06.1-4.13.05-6.38.05.19-.99.33-1.76.49-2.53.22-1.1.44-2.19.69-3.28.67-2.98.07-2.47,3.2-2.52,1.08-.02,2.16-.05,3.24.03.32.02.61.4.92.61-.3.4-.55,1.1-.9,1.15-1.02.16-2.07.05-3.11.08-.95.03-.95.04-.99,1.31.71,0,1.43-.07,2.13.03.36.05.94.4.96.65.06.62-.08,1.32-1,1.31-.6,0-1.2.04-1.8,0-.86-.05-1.15.36-1.01,1.34Z"/>
    <path class="cls-1" d="M19.47,93.45c.4-1.99.81-4,1.24-6.13-.84-.09-1.54-.16-2.21-.22-.21-1.56-.05-1.76,1.39-1.77,1.64,0,3.28-.04,4.92.03.36.01.97.36.99.59.05.63-.11,1.31-1.04,1.24-.24-.02-.48.02-.72,0-.73-.07-1.08.22-1.21.97-.23,1.34-.56,2.66-.85,3.98-.37,1.7-.6,1.83-2.52,1.31Z"/>
    <path class="cls-1" d="M126.83,87.26c-.62-.03-1.07.03-1.47-.09-.34-.1-.9-.49-.86-.61.12-.43.44-1.14.71-1.15,2.22-.09,4.44-.05,6.64-.05.09,1.66-.05,1.88-1.42,1.81-1.02-.05-1.41.34-1.57,1.3-.24,1.45-.64,2.88-.9,4.33-.2,1.17-1.05.92-1.75.85-.96-.09-.53-.8-.44-1.28.31-1.64.67-3.26,1.06-5.11Z"/>
    <path class="cls-1" d="M118.05,91.84c1.32,0,2.39-.01,3.46,0,.49,0,1.13-.12,1.04.73-.07.65-.27,1.13-1.08,1.12-1.72-.03-3.43-.02-5.15,0-.61,0-.9-.24-.77-.87.48-2.26.94-4.52,1.45-6.78.24-1.05,1.13-.71,1.77-.63.18.02.45.73.39,1.07-.3,1.72-.69,3.42-1.1,5.36Z"/>
    <path class="cls-1" d="M97.07,93.6c.34-1.68.64-3.23.96-4.77.16-.78.39-1.55.48-2.34.13-1.08.79-1.32,1.67-1.11.28.07.71.56.67.78-.42,2.27-.86,4.55-1.42,6.79-.33,1.3-1.37.62-2.35.66Z"/>
    <text class="cls-4" transform="translate(35.77 103.18)"><tspan x="0" y="0">BUILDING FUTURE, GRID BY GRID</tspan></text>
  </g>
  <rect class="cls-2" width="160" height="160"/>
</svg>